HIERARCHY
ROOT Hips
{
  OFFSET -8.990 22.873 -251.266
  CHANNELS 6 Xposition Yposition Zposition Zrotation Xrotation Yrotation
  JOINT LeftUpLeg
  {
    OFFSET 6.111 -5.234 2.493
    CHANNELS 6 Xposition Yposition Zposition Zrotation Xrotation Yrotation
    JOINT LeftLeg
    {
      OFFSET -0.000 -49.038 0.000
      CHANNELS 6 Xposition Yposition Zposition Zrotation Xrotation Yrotation
      JOINT LeftFoot
      {
        OFFSET 0.000 -38.166 -0.000
        CHANNELS 6 Xposition Yposition Zposition Zrotation Xrotation Yrotation
        End Site
        {
          OFFSET 0.000 -7.591 4.383
        }
      }
    }
  }
  JOINT RightUpLeg
  {
    OFFSET -6.296 -5.706 3.393
    CHANNELS 6 Xposition Yposition Zposition Zrotation Xrotation Yrotation
    JOINT RightLeg
    {
      OFFSET 0.000 -49.862 0.000
      CHANNELS 6 Xposition Yposition Zposition Zrotation Xrotation Yrotation
      JOINT RightFoot
      {
        OFFSET 0.000 -37.494 -0.000
        CHANNELS 6 Xposition Yposition Zposition Zrotation Xrotation Yrotation
        End Site
        {
          OFFSET 0.000 -7.546 4.357
        }
      }
    }
  }
  JOINT Spine
  {
    OFFSET 0.000 5.729 -5.729
    CHANNELS 6 Xposition Yposition Zposition Zrotation Xrotation Yrotation
    JOINT LeftShoulder
    {
      OFFSET -0.000 37.740 0.000
      CHANNELS 6 Xposition Yposition Zposition Zrotation Xrotation Yrotation
      JOINT LeftArm
      {
        OFFSET 14.611 0.000 -0.000
        CHANNELS 6 Xposition Yposition Zposition Zrotation Xrotation Yrotation
        JOINT LeftForeArm
        {
          OFFSET 21.007 0.000 0.000
          CHANNELS 6 Xposition Yposition Zposition Zrotation Xrotation Yrotation
          JOINT LeftHand
          {
            OFFSET 23.611 -0.000 -0.000
            CHANNELS 6 Xposition Yposition Zposition Zrotation Xrotation Yrotation
            JOINT LeftHandThumb1
            {
            OFFSET 4.970 -0.620 3.390
            CHANNELS 6 Xposition Yposition Zposition Zrotation Xrotation Yrotation
              JOINT LeftHandThumb2
              {
              OFFSET 2.150 -0.000 0.000
              CHANNELS 6 Xposition Yposition Zposition Zrotation Xrotation Yrotation
                JOINT LeftHandThumb3
                {
                OFFSET 2.200 -0.000 0.000
                CHANNELS 6 Xposition Yposition Zposition Zrotation Xrotation Yrotation
                  JOINT LeftHandThumb4
                  {
                  OFFSET 1.700 -0.000 0.000
                  CHANNELS 6 Xposition Yposition Zposition Zrotation Xrotation Yrotation
                  }
                }
              }
            }
            JOINT LeftHandIndex1
            {
            OFFSET 8.730 0.680 2.070
            CHANNELS 6 Xposition Yposition Zposition Zrotation Xrotation Yrotation
              JOINT LeftHandIndex2
              {
              OFFSET 2.670 -0.000 0.000
              CHANNELS 6 Xposition Yposition Zposition Zrotation Xrotation Yrotation
                JOINT LeftHandIndex3
                {
                OFFSET 2.130 -0.000 0.000
                CHANNELS 6 Xposition Yposition Zposition Zrotation Xrotation Yrotation
                  JOINT LeftHandIndex4
                  {
                  OFFSET 1.800 -0.000 0.000
                  CHANNELS 6 Xposition Yposition Zposition Zrotation Xrotation Yrotation
                  }
                }
              }
            }
            JOINT LeftHandMiddle1
            {
            OFFSET 9.220 0.670 0.550
            CHANNELS 6 Xposition Yposition Zposition Zrotation Xrotation Yrotation
              JOINT LeftHandMiddle2
              {
              OFFSET 2.660 -0.000 0.000
              CHANNELS 6 Xposition Yposition Zposition Zrotation Xrotation Yrotation
                JOINT LeftHandMiddle3
                {
                OFFSET 2.280 -0.000 0.000
                CHANNELS 6 Xposition Yposition Zposition Zrotation Xrotation Yrotation
                  JOINT LeftHandMiddle4
                  {
                  OFFSET 1.500 -0.000 0.000
                  CHANNELS 6 Xposition Yposition Zposition Zrotation Xrotation Yrotation
                  }
                }
              }
            }
            JOINT LeftHandRing1
            {
            OFFSET 9.250 0.670 -1.130
            CHANNELS 6 Xposition Yposition Zposition Zrotation Xrotation Yrotation
              JOINT LeftHandRing2
              {
              OFFSET 2.470 -0.000 0.000
              CHANNELS 6 Xposition Yposition Zposition Zrotation Xrotation Yrotation
                JOINT LeftHandRing3
                {
                OFFSET 2.210 -0.000 0.000
                CHANNELS 6 Xposition Yposition Zposition Zrotation Xrotation Yrotation
                  JOINT LeftHandRing4
                  {
                  OFFSET 1.800 -0.000 0.000
                  CHANNELS 6 Xposition Yposition Zposition Zrotation Xrotation Yrotation
                  }
                }
              }
            }
            JOINT LeftHandPinky1
            {
            OFFSET 9.350 0.660 -2.720
            CHANNELS 6 Xposition Yposition Zposition Zrotation Xrotation Yrotation
              JOINT LeftHandPinky2
              {
              OFFSET 1.630 -0.000 0.000
              CHANNELS 6 Xposition Yposition Zposition Zrotation Xrotation Yrotation
                JOINT LeftHandPinky3
                {
                OFFSET 1.710 -0.000 0.000
                CHANNELS 6 Xposition Yposition Zposition Zrotation Xrotation Yrotation
                  JOINT LeftHandPinky4
                  {
                  OFFSET 1.800 -0.000 0.000
                  CHANNELS 6 Xposition Yposition Zposition Zrotation Xrotation Yrotation
                  }
                }
              }
            }
          }
        }
      }
    }
    JOINT RightShoulder
    {
      OFFSET -0.000 37.740 0.000
      CHANNELS 6 Xposition Yposition Zposition Zrotation Xrotation Yrotation
      JOINT RightArm
      {
        OFFSET -20.197 0.000 -0.000
        CHANNELS 6 Xposition Yposition Zposition Zrotation Xrotation Yrotation
        JOINT RightForeArm
        {
          OFFSET -19.961 0.000 0.000
          CHANNELS 6 Xposition Yposition Zposition Zrotation Xrotation Yrotation
          JOINT RightHand
          {
            OFFSET -22.841 0.000 -0.000
            CHANNELS 6 Xposition Yposition Zposition Zrotation Xrotation Yrotation
            JOINT RightHandThumb1
            {
            OFFSET -4.970 -0.620 3.390
            CHANNELS 6 Xposition Yposition Zposition Zrotation Xrotation Yrotation
              JOINT RightHandThumb2
              {
              OFFSET -2.150 0.000 0.000
              CHANNELS 6 Xposition Yposition Zposition Zrotation Xrotation Yrotation
                JOINT RightHandThumb3
                {
                OFFSET -2.200 0.000 0.000
                CHANNELS 6 Xposition Yposition Zposition Zrotation Xrotation Yrotation
                  JOINT RightHandThumb4
                  {
                  OFFSET -1.700 0.000 0.000
                  CHANNELS 6 Xposition Yposition Zposition Zrotation Xrotation Yrotation
                  }
                }
              }
            }
            JOINT RightHandIndex1
            {
            OFFSET -8.730 0.680 2.070
            CHANNELS 6 Xposition Yposition Zposition Zrotation Xrotation Yrotation
              JOINT RightHandIndex2
              {
              OFFSET -2.670 0.000 0.000
              CHANNELS 6 Xposition Yposition Zposition Zrotation Xrotation Yrotation
                JOINT RightHandIndex3
                {
                OFFSET -2.130 0.000 0.000
                CHANNELS 6 Xposition Yposition Zposition Zrotation Xrotation Yrotation
                  JOINT RightHandIndex4
                  {
                  OFFSET -1.800 0.000 0.000
                  CHANNELS 6 Xposition Yposition Zposition Zrotation Xrotation Yrotation
                  }
                }
              }
            }
            JOINT RightHandMiddle1
            {
            OFFSET -9.220 0.670 0.550
            CHANNELS 6 Xposition Yposition Zposition Zrotation Xrotation Yrotation
              JOINT RightHandMiddle2
              {
              OFFSET -2.660 0.000 0.000
              CHANNELS 6 Xposition Yposition Zposition Zrotation Xrotation Yrotation
                JOINT RightHandMiddle3
                {
                OFFSET -2.280 0.000 0.000
                CHANNELS 6 Xposition Yposition Zposition Zrotation Xrotation Yrotation
                  JOINT RightHandMiddle4
                  {
                  OFFSET -1.500 0.000 0.000
                  CHANNELS 6 Xposition Yposition Zposition Zrotation Xrotation Yrotation
                  }
                }
              }
            }
            JOINT RightHandRing1
            {
            OFFSET -9.250 0.670 -1.130
            CHANNELS 6 Xposition Yposition Zposition Zrotation Xrotation Yrotation
              JOINT RightHandRing2
              {
              OFFSET -2.470 0.000 0.000
              CHANNELS 6 Xposition Yposition Zposition Zrotation Xrotation Yrotation
                JOINT RightHandRing3
                {
                OFFSET -2.210 0.000 0.000
                CHANNELS 6 Xposition Yposition Zposition Zrotation Xrotation Yrotation
                  JOINT RightHandRing4
                  {
                  OFFSET -1.800 0.000 0.000
                  CHANNELS 6 Xposition Yposition Zposition Zrotation Xrotation Yrotation
                  }
                }
              }
            }
            JOINT RightHandPinky1
            {
            OFFSET -9.350 0.660 -2.720
            CHANNELS 6 Xposition Yposition Zposition Zrotation Xrotation Yrotation
              JOINT RightHandPinky2
              {
              OFFSET -1.630 0.000 0.000
              CHANNELS 6 Xposition Yposition Zposition Zrotation Xrotation Yrotation
                JOINT RightHandPinky3
                {
                OFFSET -1.710 0.000 0.000
                CHANNELS 6 Xposition Yposition Zposition Zrotation Xrotation Yrotation
                  JOINT RightHandPinky4
                  {
                  OFFSET -1.800 0.000 0.000
                  CHANNELS 6 Xposition Yposition Zposition Zrotation Xrotation Yrotation
                  }
                }
              }
            }
          }
        }
      }
    }
    JOINT Neck
    {
      OFFSET -0.000 37.740 0.000
      CHANNELS 6 Xposition Yposition Zposition Zrotation Xrotation Yrotation
      JOINT Head
      {
        OFFSET -0.000 18.073 -0.000
        CHANNELS 6 Xposition Yposition Zposition Zrotation Xrotation Yrotation
        End Site
        {
          OFFSET -0.000 0.072 -0.000
        }
      }
    }
  }
}
MOTION
Frames:	5
Frame Time:	0.0333333
-5.37298 22.6548 -266.06 1.04881 7.34375 -4.86187 5.84127 -6.05492 0.45011 1.28474 -7.66869 10.2237 -5.96046e-06 -50.0014 2.38419e-05 -0.176655 -14.2534 1.76178e-06 5.96046e-06 -35.7004 2.38419e-05 -4.87598 -20.804 -4.37338 -6.31066 -6.03686 2.63259 3.83504 2.63103 10.0199 -2.98023e-06 -53.4767 2.38419e-05 -3.53045 -5.8485 -0.3602 1.49012e-06 -35.2405 0 -3.05297 -26.8937 -3.062 2.98023e-06 6.49196 -6.49197 -2.78235 -5.48163 4.64096 -5.58794e-06 37.7398 2.38419e-05 -34.5357 1.31268e-05 -2.41903 13.7002 -1.49012e-05 -7.15256e-05 -24.3468 40.5567 -3.25306 21.3602 4.76837e-05 4.76837e-05 1.31784e-05 -2.84735e-06 -109.215 27.264 1.19209e-05 0 0.51464 0.229907 24.0657 0.0062 0.0497 0.0339 0 0 0 0 0.0215 0 0 0 0 0 0.022 0 0 0 0 0 0.017 0 0 0 0 -0.0068 0.0873 0.0207 0 0 0 0 0.0267 0 0 0 0 0 0.0213 0 0 0 0 0 0.018 0 0 0 0 -0.0067 0.0922 0.0055 0 0 0 0 0.0266 0 0 0 0 0 0.0228 0 0 0 0 0 0.015 0 0 0 0 -0.0067 0.0925 -0.0113 0 0 0 0 0.0247 0 0 0 0 0 0.0221 0 0 0 0 0 0.018 0 0 0 0 -0.0066 0.0935 -0.0272 0 0 0 0 0.0163 0 0 0 0 0 0.0171 0 0 0 0 0 0.018 0 0 0 0 -5.58794e-06 37.7398 2.38419e-05 35.6998 -2.77476e-06 1.6084 -20.6016 -2.98023e-06 -2.38419e-05 39.6305 24.7238 -44.7144 -18.0495 5.96046e-06 2.38419e-05 -2.4812e-07 3.3182e-06 98.5527 -27.4271 -1.78814e-05 -1.19209e-05 -6.38262 0.113782 -16.4319 -0.0062 0.0497 0.0339 0 0 0 0 0.0215 0 0 0 0 0 0.022 0 0 0 0 0 0.017 0 0 0 0 0.0068 0.0873 0.0207 0 0 0 0 0.0267 0 0 0 0 0 0.0213 0 0 0 0 0 0.018 0 0 0 0 0.0067 0.0922 0.0055 0 0 0 0 0.0266 0 0 0 0 0 0.0228 0 0 0 0 0 0.015 0 0 0 0 0.0067 0.0925 -0.0113 0 0 0 0 0.0247 0 0 0 0 0 0.0221 0 0 0 0 0 0.018 0 0 0 0 0.0066 0.0935 -0.0272 0 0 0 0 0.0163 0 0 0 0 0 0.0171 0 0 0 0 0 0.018 0 0 0 0 -5.58794e-06 37.7398 2.38419e-05 13.1469 2.3036 -0.537888 -2.23517e-06 20.4535 0 1.15326e-05 -1.06722e-05 1.06722e-07 
-5.58248 22.7605 -266.115 1.29875 7.31255 -3.4274 5.59386 -5.83946 0.50025 1.38781 -7.94956 9.18092 -8.9407e-06 -50.3102 2.38419e-05 -0.865271 -13.6722 -1.75734e-06 2.98023e-06 -35.6545 0 -4.95137 -20.873 -4.44431 -6.15497 -5.91942 2.45013 3.3839 2.4975 9.29974 4.47035e-06 -53.4876 0 -3.02658 -5.9499 -0.31402 -1.49012e-06 -35.4147 -7.15256e-05 -1.49707 -28.759 -1.60326 -1.49012e-06 6.43587 -6.43585 -3.42141 -5.33393 4.9481 1.30385e-06 37.7398 -7.15256e-05 -34.2423 1.16327e-05 -4.68681 13.7366 5.96046e-06 4.76837e-05 -24.9588 41.5745 -1.99006 21.5841 0 2.38419e-05 4.96045e-07 2.88737e-06 -109.496 27.2667 4.76837e-05 1.19209e-05 0.478092 0.15465 24.2786 0.0062 0.0497 0.0339 0 0 0 0 0.0215 0 0 0 0 0 0.022 0 0 0 0 0 0.017 0 0 0 0 -0.0068 0.0873 0.0207 0 0 0 0 0.0267 0 0 0 0 0 0.0213 0 0 0 0 0 0.018 0 0 0 0 -0.0067 0.0922 0.0055 0 0 0 0 0.0266 0 0 0 0 0 0.0228 0 0 0 0 0 0.015 0 0 0 0 -0.0067 0.0925 -0.0113 0 0 0 0 0.0247 0 0 0 0 0 0.0221 0 0 0 0 0 0.018 0 0 0 0 -0.0066 0.0935 -0.0272 0 0 0 0 0.0163 0 0 0 0 0 0.0171 0 0 0 0 0 0.018 0 0 0 0 1.30385e-06 37.7398 -7.15256e-05 38.3951 -4.26887e-06 3.25328 -19.7781 2.38419e-05 9.53674e-05 35.9632 22.9696 -49.2578 -19.1417 -4.76837e-05 -4.76837e-05 -1.38317e-06 1.31596e-05 102 -27.4148 1.78814e-05 2.38419e-05 -5.77862 0.0831272 -17.8733 -0.0062 0.0497 0.0339 0 0 0 0 0.0215 0 0 0 0 0 0.022 0 0 0 0 0 0.017 0 0 0 0 0.0068 0.0873 0.0207 0 0 0 0 0.0267 0 0 0 0 0 0.0213 0 0 0 0 0 0.018 0 0 0 0 0.0067 0.0922 0.0055 0 0 0 0 0.0266 0 0 0 0 0 0.0228 0 0 0 0 0 0.015 0 0 0 0 0.0067 0.0925 -0.0113 0 0 0 0 0.0247 0 0 0 0 0 0.0221 0 0 0 0 0 0.018 0 0 0 0 0.0066 0.0935 -0.0272 0 0 0 0 0.0163 0 0 0 0 0 0.0171 0 0 0 0 0 0.018 0 0 0 0 1.30385e-06 37.7398 -7.15256e-05 13.045 2.3686 -0.548618 1.49012e-06 20.4679 2.38419e-05 9.92512e-06 -9.8184e-06 -5.33609e-08 
-5.58248 22.7605 -266.115 1.29875 7.31255 -3.4274 5.59386 -5.83946 0.50025 1.38781 -7.94956 9.18092 -8.9407e-06 -50.3102 2.38419e-05 -0.865271 -13.6722 -1.75734e-06 2.98023e-06 -35.6545 0 -4.95137 -20.873 -4.44431 -6.15497 -5.91942 2.45013 3.3839 2.4975 9.29974 4.47035e-06 -53.4876 0 -3.02658 -5.9499 -0.31402 -1.49012e-06 -35.4147 -7.15256e-05 -1.49707 -28.759 -1.60326 -1.49012e-06 6.43587 -6.43585 -3.42141 -5.33393 4.9481 1.30385e-06 37.7398 -7.15256e-05 -34.2423 1.16327e-05 -4.68681 13.7366 5.96046e-06 4.76837e-05 -24.9588 41.5745 -1.99006 21.5841 0 2.38419e-05 4.96045e-07 2.88737e-06 -109.496 27.2667 4.76837e-05 1.19209e-05 0.478092 0.15465 24.2786 0.0062 0.0497 0.0339 0 0 0 0 0.0215 0 0 0 0 0 0.022 0 0 0 0 0 0.017 0 0 0 0 -0.0068 0.0873 0.0207 0 0 0 0 0.0267 0 0 0 0 0 0.0213 0 0 0 0 0 0.018 0 0 0 0 -0.0067 0.0922 0.0055 0 0 0 0 0.0266 0 0 0 0 0 0.0228 0 0 0 0 0 0.015 0 0 0 0 -0.0067 0.0925 -0.0113 0 0 0 0 0.0247 0 0 0 0 0 0.0221 0 0 0 0 0 0.018 0 0 0 0 -0.0066 0.0935 -0.0272 0 0 0 0 0.0163 0 0 0 0 0 0.0171 0 0 0 0 0 0.018 0 0 0 0 1.30385e-06 37.7398 -7.15256e-05 38.3951 -4.26887e-06 3.25328 -19.7781 2.38419e-05 9.53674e-05 35.9632 22.9696 -49.2578 -19.1417 -4.76837e-05 -4.76837e-05 -1.38317e-06 1.31596e-05 102 -27.4148 1.78814e-05 2.38419e-05 -5.77862 0.0831272 -17.8733 -0.0062 0.0497 0.0339 0 0 0 0 0.0215 0 0 0 0 0 0.022 0 0 0 0 0 0.017 0 0 0 0 0.0068 0.0873 0.0207 0 0 0 0 0.0267 0 0 0 0 0 0.0213 0 0 0 0 0 0.018 0 0 0 0 0.0067 0.0922 0.0055 0 0 0 0 0.0266 0 0 0 0 0 0.0228 0 0 0 0 0 0.015 0 0 0 0 0.0067 0.0925 -0.0113 0 0 0 0 0.0247 0 0 0 0 0 0.0221 0 0 0 0 0 0.018 0 0 0 0 0.0066 0.0935 -0.0272 0 0 0 0 0.0163 0 0 0 0 0 0.0171 0 0 0 0 0 0.018 0 0 0 0 1.30385e-06 37.7398 -7.15256e-05 13.045 2.3686 -0.548618 1.49012e-06 20.4679 2.38419e-05 9.92512e-06 -9.8184e-06 -5.33609e-08 
-5.5581 23.3459 -266.18 0.6466 7.13892 -2.88245 5.75241 -5.93103 0.543308 1.83888 -7.90541 8.94496 -2.98023e-06 -50.7372 2.38419e-05 -0.823353 -13.4333 -0.191288 0 -35.612 0 -4.88667 -20.9248 -4.38982 -6.23081 -6.17479 2.42822 4.08201 2.54078 8.81395 0 -53.9371 7.15256e-05 -3.0044 -5.84847 -0.306419 -4.47035e-06 -35.3614 -9.53674e-05 -1.39719 -28.8147 -1.48752 5.96046e-06 6.39614 -6.39617 -2.70569 -4.96663 4.14192 -7.26432e-06 37.7398 4.76837e-05 -34.2631 1.14192e-05 -4.17204 13.9612 1.19209e-05 -4.76837e-05 -25.1059 41.854 -3.19089 21.8956 1.19209e-05 7.15256e-05 -1.48206e-05 -7.10122e-06 -108.558 27.2676 -3.57628e-05 1.19209e-05 0.283885 0.119409 23.9572 0.0062 0.0497 0.0339 0 0 0 0 0.0215 0 0 0 0 0 0.022 0 0 0 0 0 0.017 0 0 0 0 -0.0068 0.0873 0.0207 0 0 0 0 0.0267 0 0 0 0 0 0.0213 0 0 0 0 0 0.018 0 0 0 0 -0.0067 0.0922 0.0055 0 0 0 0 0.0266 0 0 0 0 0 0.0228 0 0 0 0 0 0.015 0 0 0 0 -0.0067 0.0925 -0.0113 0 0 0 0 0.0247 0 0 0 0 0 0.0221 0 0 0 0 0 0.018 0 0 0 0 -0.0066 0.0935 -0.0272 0 0 0 0 0.0163 0 0 0 0 0 0.0171 0 0 0 0 0 0.018 0 0 0 0 -7.26432e-06 37.7398 4.76837e-05 36.1701 -3.62854e-06 2.95383 -19.7103 8.9407e-06 -2.38419e-05 38.968 22.6351 -46.6068 -19.4499 1.19209e-05 4.76837e-05 2.64567e-05 1.04225e-05 99.4781 -27.4106 -5.96046e-06 -2.38419e-05 -5.30057 0.0610748 -18.6327 -0.0062 0.0497 0.0339 0 0 0 0 0.0215 0 0 0 0 0 0.022 0 0 0 0 0 0.017 0 0 0 0 0.0068 0.0873 0.0207 0 0 0 0 0.0267 0 0 0 0 0 0.0213 0 0 0 0 0 0.018 0 0 0 0 0.0067 0.0922 0.0055 0 0 0 0 0.0266 0 0 0 0 0 0.0228 0 0 0 0 0 0.015 0 0 0 0 0.0067 0.0925 -0.0113 0 0 0 0 0.0247 0 0 0 0 0 0.0221 0 0 0 0 0 0.018 0 0 0 0 0.0066 0.0935 -0.0272 0 0 0 0 0.0163 0 0 0 0 0 0.0171 0 0 0 0 0 0.018 0 0 0 0 -7.26432e-06 37.7398 4.76837e-05 13.1781 2.65433 -0.621249 -2.98023e-06 20.0052 -7.15256e-05 1.33502e-05 -9.39151e-06 -1.33402e-07 
-5.56413 23.7137 -266.224 1.05938 7.03782 -4.2701 5.83246 -6.10111 0.42522 1.48578 -7.8853 10.028 -1.19209e-05 -50.9798 4.76837e-05 -0.639283 -13.3007 -0.147082 8.9407e-06 -35.6188 0 -4.96988 -20.9644 -4.46699 -6.38236 -6.39762 2.60365 3.79976 2.59321 10.0018 2.98023e-06 -54.1306 0 -3.18227 -5.68062 -0.315315 -1.49012e-06 -35.2697 -4.76837e-05 -1.74735 -28.3084 -1.79615 0 6.3642 -6.36423 -2.79953 -4.83338 4.13105 -4.47035e-06 37.7398 7.15256e-05 -34.2562 1.15259e-05 -2.81052 14.2085 1.19209e-05 -4.76837e-05 -25.0371 41.552 -4.55683 22.0093 3.57628e-05 0 -4.35599e-05 6.80704e-06 -107.763 27.2679 2.38419e-05 0 0.0631211 0.0906007 23.3879 0.0062 0.0497 0.0339 0 0 0 0 0.0215 0 0 0 0 0 0.022 0 0 0 0 0 0.017 0 0 0 0 -0.0068 0.0873 0.0207 0 0 0 0 0.0267 0 0 0 0 0 0.0213 0 0 0 0 0 0.018 0 0 0 0 -0.0067 0.0922 0.0055 0 0 0 0 0.0266 0 0 0 0 0 0.0228 0 0 0 0 0 0.015 0 0 0 0 -0.0067 0.0925 -0.0113 0 0 0 0 0.0247 0 0 0 0 0 0.0221 0 0 0 0 0 0.018 0 0 0 0 -0.0066 0.0935 -0.0272 0 0 0 0 0.0163 0 0 0 0 0 0.0171 0 0 0 0 0 0.018 0 0 0 0 -4.47035e-06 37.7398 7.15256e-05 35.7933 -3.62854e-06 1.95894 -20.381 1.49012e-05 -2.38419e-05 39.0082 24.4327 -44.2972 -19.0759 5.96046e-06 -4.76837e-05 -1.46327e-05 1.21943e-05 99.1177 -27.4119 0 -3.57628e-05 -4.94115 0.0489801 -19.5835 -0.0062 0.0497 0.0339 0 0 0 0 0.0215 0 0 0 0 0 0.022 0 0 0 0 0 0.017 0 0 0 0 0.0068 0.0873 0.0207 0 0 0 0 0.0267 0 0 0 0 0 0.0213 0 0 0 0 0 0.018 0 0 0 0 0.0067 0.0922 0.0055 0 0 0 0 0.0266 0 0 0 0 0 0.0228 0 0 0 0 0 0.015 0 0 0 0 0.0067 0.0925 -0.0113 0 0 0 0 0.0247 0 0 0 0 0 0.0221 0 0 0 0 0 0.018 0 0 0 0 0.0066 0.0935 -0.0272 0 0 0 0 0.0163 0 0 0 0 0 0.0171 0 0 0 0 0 0.018 0 0 0 0 -4.47035e-06 37.7398 7.15256e-05 13.0785 3.1231 -0.725133 -3.72529e-06 19.6992 2.38419e-05 1.28066e-05 -8.53774e-06 -1.06722e-07 
